<svg id="レイヤー_1" data-name="レイヤー 1" xmlns="http://www.w3.org/2000/svg" viewBox="0 0 36 36"><defs><style>.cls-1{fill:#2aff43;}.cls-2{fill:#f4900c;}.cls-3{fill:#ffac33;}.cls-4{fill:#ffcc4d;}.cls-5{fill:#269;}.cls-6{fill:#55acee;}.cls-7{fill:#3b88c3;}.cls-8{fill:#fff;}.cls-9{fill:#dd2e44;}.cls-10{fill:#f5f8fa;}.cls-11{fill:#ccd6dd;}</style></defs><circle class="cls-1" cx="18" cy="18" r="18"/><ellipse class="cls-2" cx="27.6" cy="15.64" rx="1.55" ry="2.17"/><ellipse class="cls-2" cx="8.4" cy="15.64" rx="1.55" ry="2.17"/><path class="cls-3" d="M27.9,18.43a.61.61,0,0,1-.61.62H25.43a.62.62,0,0,1-.62-.62V12.86a.62.62,0,0,1,.62-.62h1.86a.61.61,0,0,1,.61.62Zm-16.71,0a.62.62,0,0,1-.62.62H8.71a.61.61,0,0,1-.61-.62V12.86a.61.61,0,0,1,.61-.62h1.86a.62.62,0,0,1,.62.62Z"/><path class="cls-4" d="M24.19,9.76c0,1.71-2.77,2.48-6.19,2.48s-6.19-.77-6.19-2.48S14.58,6.67,18,6.67,24.19,8.05,24.19,9.76Z"/><path class="cls-2" d="M22.33,9.19c0,1-1.94,1.81-4.33,1.81s-4.33-.81-4.33-1.81,1.94-1.8,4.33-1.8S22.33,8.2,22.33,9.19Z"/><path class="cls-5" d="M25.43,10.07c0,.86-.69.93-1.55.93H12.12c-.86,0-1.55-.07-1.55-.93a1.55,1.55,0,0,1,1.55-1.55H23.88A1.55,1.55,0,0,1,25.43,10.07Z"/><path class="cls-6" d="M25.43,10.38H10.57a1.25,1.25,0,0,0-1.24,1.24V27.71H26.67V11.62A1.25,1.25,0,0,0,25.43,10.38Z"/><path class="cls-7" d="M28.52,27.1v-.62a1.23,1.23,0,0,0-1.23-1.24H20.52l-2.08,2.08a.63.63,0,0,1-.88,0l-2.08-2.08H8.71a1.23,1.23,0,0,0-1.23,1.24v.62c0,.68-.07,1.23.62,1.23H27.9C28.59,28.33,28.52,27.78,28.52,27.1Z"/><circle class="cls-8" cx="22.02" cy="15.64" r="2.79"/><circle class="cls-9" cx="22.02" cy="15.64" r="1.68"/><circle class="cls-8" cx="13.98" cy="15.64" r="2.79"/><path class="cls-10" d="M24.81,22.45A1.54,1.54,0,0,1,23.26,24H12.74a1.55,1.55,0,0,1,0-3.1H23.26A1.55,1.55,0,0,1,24.81,22.45Z"/><path class="cls-11" d="M17.38,20.9h1.24V24H17.38Zm-3.09,0h1.23V24H14.29Zm6.19,0h1.23V24H20.48Zm-9.29,1.55A1.55,1.55,0,0,0,12.43,24v-3A1.54,1.54,0,0,0,11.19,22.45Zm12.38-1.51v3a1.55,1.55,0,0,0,1.24-1.52A1.54,1.54,0,0,0,23.57,20.94Z"/><circle class="cls-9" cx="13.98" cy="15.64" r="1.68"/></svg>