<svg xmlns="http://www.w3.org/2000/svg" xmlns:xlink="http://www.w3.org/1999/xlink" viewBox="0 0 512 512"><defs><style>.cls-1{fill:none;}.cls-2{clip-path:url(#clip-path);}.cls-3{fill:url(#名称未設定グラデーション_4);}.cls-4{clip-path:url(#clip-path-2);}.cls-5{fill:url(#名称未設定グラデーション_5);}.cls-6{fill:url(#MagnetMetal);}.cls-7{fill:url(#MagnetMetal-2);}.cls-8{fill:#fff;}</style><clipPath id="clip-path"><polygon id="LeftClippingMask" class="cls-1" points="160 160 160 256 256 256 256 512 0 512 0 256 0 160 160 160"/></clipPath><linearGradient id="名称未設定グラデーション_4" x1="64.8" y1="-0.8" x2="447.2" y2="381.59" gradientUnits="userSpaceOnUse"><stop offset="0.4" stop-color="#387eb8"/><stop offset="1" stop-color="#366994"/></linearGradient><clipPath id="clip-path-2"><polygon id="RightClippingMask" class="cls-1" points="352 0 352 256 256 256 256 512 512 512 512 256 512 0 352 0"/></clipPath><linearGradient id="名称未設定グラデーション_5" x1="64.8" y1="-0.8" x2="447.2" y2="381.59" gradientUnits="userSpaceOnUse"><stop offset="0.4" stop-color="#ffe052"/><stop offset="1" stop-color="#ffc331"/></linearGradient><linearGradient id="MagnetMetal" x1="34.14" y1="156.29" x2="157.86" y2="227.71" gradientUnits="userSpaceOnUse"><stop offset="0" stop-color="#e6e6e6"/><stop offset="1" stop-color="gray"/></linearGradient><linearGradient id="MagnetMetal-2" x1="354.14" y1="28.29" x2="477.86" y2="99.71" xlink:href="#MagnetMetal"/></defs><g id="MagnetCore"><g id="Left"><g class="cls-2"><path id="Blue" class="cls-3" d="M352,32V53.57a224.42,224.42,0,0,0-192,0V32H32V256c0,123.71,100.29,224,224,224S480,379.71,480,256V32ZM256,352a96,96,0,1,1,96-96A96,96,0,0,1,256,352Z"/></g></g><g id="Right"><g class="cls-4"><path id="Yellow" class="cls-5" d="M352,32V53.57a224.42,224.42,0,0,0-192,0V32H32V256c0,123.71,100.29,224,224,224S480,379.71,480,256V32ZM256,352a96,96,0,1,1,96-96A96,96,0,0,1,256,352Z"/></g></g></g><g id="Ends"><rect class="cls-6" x="32" y="160" width="128" height="64"/><rect class="cls-7" x="352" y="32" width="128" height="64"/></g><g id="Eyes"><circle class="cls-8" cx="448" cy="128" r="16"/><circle class="cls-8" cx="64" cy="256" r="16"/></g></svg>